<svg width="86" height="42" viewBox="0 0 86 42" fill="none" xmlns="http://www.w3.org/2000/svg">
<path d="M8.32775 41.32C5.68775 41.08 4.19975 40.408 4.10375 38.2C4.00775 36.808 3.95975 29.032 3.95975 27.208C3.95975 25.24 5.25575 23.608 7.41575 23.608C9.62375 23.608 10.8238 24.856 10.8238 27.112V28.072C15.9118 28.072 24.2638 28.12 29.2078 28.024V26.728C29.1598 24.664 30.4078 23.368 32.4718 23.368C34.2478 23.368 35.9278 24.232 35.9278 26.632V37.96C35.9278 40.072 34.6798 40.936 32.0878 41.176C24.3118 41.848 15.6718 41.944 8.32775 41.32ZM0.74375 4.984C0.74375 2.632 2.23175 1.432 4.15175 1.432C6.16775 1.432 7.65575 2.632 7.65575 5.032V6.76C9.95975 6.712 14.2318 6.76 16.5838 6.76V4.744C16.5838 2.536 18.1198 1.432 20.0878 1.432C22.0078 1.432 23.5438 2.44 23.5438 4.552C23.5438 6.232 23.6398 15.448 23.5438 17.368C23.3998 20.344 22.5358 21.496 18.2158 21.688C14.8558 21.88 9.62375 21.928 5.54375 21.736C1.84775 21.544 0.93575 20.44 0.83975 17.464C0.79175 15.64 0.74375 6.856 0.74375 4.984ZM7.65575 14.872C7.70375 15.88 7.94375 15.928 8.99975 15.976C11.0638 16.024 13.0318 16.072 14.9038 15.928C16.3438 15.832 16.6318 15.928 16.6318 14.872V12.184C14.0878 12.088 10.2478 12.088 7.65575 12.184V14.872ZM10.7758 34.792C10.7758 35.608 10.9198 35.8 11.7838 35.848C16.8718 36.232 22.7758 36.232 28.5838 35.752C29.1118 35.704 29.2078 35.656 29.2078 35.224V33.208C23.7358 33.4 16.2958 33.544 10.7758 33.448V34.792ZM28.8238 5.896C28.5358 2.344 29.8318 0.903998 32.0878 0.808C34.3438 0.711998 36.0238 1.768 36.1678 6.232L36.2638 8.296H40.1038C41.5438 8.296 42.4078 9.448 42.4078 11.032C42.4078 12.472 41.7358 13.912 40.1998 14.2C38.9518 14.44 37.6558 14.44 36.2158 14.296C36.2158 15.64 36.1678 16.936 36.1198 17.896C35.9758 20.68 34.6318 21.88 32.4718 21.88C30.3118 21.88 29.0158 20.872 29.0638 17.656C29.1118 14.632 29.1118 9.544 28.8238 5.896ZM51.428 41.464C50.036 41.464 49.316 40.936 49.172 39.832C48.932 37.672 48.932 34.504 49.076 31.672C49.124 30.28 49.796 29.896 51.284 29.896L73.364 29.944C74.18 29.944 74.324 29.752 74.324 29.32V28.744C74.324 28.36 74.132 28.312 73.556 28.312C68.324 28.168 59.204 28.216 52.628 28.408C50.468 28.456 48.452 28.168 48.452 26.104C48.452 24.088 49.748 23.512 52.34 23.464C54.74 23.416 57.62 23.368 60.596 23.368V21.544C55.7 21.544 51.044 21.496 47.78 21.448C45.236 21.4 43.94 20.968 43.94 19C43.94 17.368 44.996 16.312 48.068 16.408C56.18 16.6 73.892 16.552 81.044 16.312C84.308 16.216 85.22 17.176 85.22 18.904C85.22 20.728 83.924 21.448 81.476 21.496C78.788 21.544 73.988 21.592 68.66 21.592V23.416C71.924 23.464 74.996 23.512 77.348 23.656C80.564 23.848 81.092 24.28 81.188 26.248C81.284 28.168 81.188 30.328 80.996 32.152C80.756 34.12 80.18 34.408 77.972 34.504C71.972 34.792 60.308 34.792 55.604 34.648C55.364 34.648 55.172 34.744 55.172 35.032V35.992C55.172 36.328 55.412 36.472 55.892 36.472C61.268 36.52 73.22 36.472 79.124 36.424C81.908 36.424 82.388 37.624 82.388 38.776C82.388 39.976 81.572 41.128 79.46 41.224C71.588 41.56 60.596 41.512 51.428 41.464ZM47.828 12.088C47.828 10.696 48.788 9.688 50.996 9.688H54.26V8.536C54.26 7.288 54.98 6.376 55.988 5.896C54.26 5.848 52.724 5.848 51.476 5.8C49.46 5.752 48.308 4.936 48.308 3.448C48.308 2.056 49.46 0.951998 51.524 0.951998C57.716 0.951998 71.348 1.048 77.924 1.048C79.988 1.048 80.852 2.2 80.852 3.544C80.852 4.84 80.036 5.8 77.972 5.848C76.676 5.896 75.14 5.896 73.46 5.896C74.324 6.376 74.996 7.288 74.996 8.584V9.784H78.068C80.468 9.784 81.332 10.696 81.332 12.136C81.332 13.624 80.516 14.488 78.116 14.536C71.828 14.632 57.188 14.584 50.852 14.488C48.788 14.44 47.828 13.576 47.828 12.088ZM59.78 5.896C60.644 6.376 61.316 7.24 61.316 8.584V9.736H67.94V8.536C67.94 7.336 68.612 6.424 69.572 5.944C66.356 5.944 62.948 5.944 59.78 5.896Z" fill="#FF8A00"/>
</svg>
